# Blender 4.0.2
# www.blender.org
mtllib key.mtl
o Cube
v 0.158049 -0.014867 -0.158770
v 0.158049 -0.069875 -0.158770
v 0.178323 -0.035140 -0.008411
v 0.178323 -0.049602 -0.008411
v -0.170043 -0.004360 -0.169277
v -0.170043 -0.080382 -0.169277
v -0.170043 -0.004360 0.168992
v -0.170043 -0.080382 0.168992
v 0.158049 -0.004360 -0.169277
v 0.158049 -0.080382 -0.169277
v 0.158049 -0.004360 0.168992
v 0.158049 -0.080382 0.168992
v 0.521285 -0.014867 -0.158770
v 0.521285 -0.069875 -0.158770
v 0.501748 -0.034404 -0.008411
v 0.501748 -0.050339 -0.008411
v 0.339667 -0.069875 -0.158770
v 0.359204 -0.050339 -0.008411
v 0.359204 -0.034404 -0.008411
v 0.339667 -0.014867 -0.158770
v 0.521285 -0.014867 -0.008411
v 0.521285 -0.069875 -0.008411
v 0.319394 -0.049602 -0.008411
v 0.319394 -0.035140 -0.008411
v 0.501748 -0.034404 -0.008411
v 0.501748 -0.050339 -0.008411
v 0.359204 -0.050339 -0.008411
v 0.359204 -0.034404 -0.008411
v 0.501748 -0.034404 0.128751
v 0.501748 -0.050339 0.128751
v 0.359204 -0.050339 0.128751
v 0.359204 -0.034404 0.128751
v 0.158049 -0.014867 -0.008411
v 0.158049 -0.069875 -0.008411
v 0.339667 -0.069875 -0.008411
v 0.339667 -0.014867 -0.008411
v 0.178323 -0.035140 0.123998
v 0.178323 -0.049602 0.123998
v 0.319394 -0.049602 0.123998
v 0.319394 -0.035140 0.123998
vn -0.0000 1.0000 -0.0000
vn -0.0000 -0.0000 1.0000
vn -1.0000 -0.0000 -0.0000
vn -0.0000 -1.0000 -0.0000
vn -0.0000 -0.0000 -1.0000
vn 1.0000 -0.0000 -0.0000
vt 0.625000 0.500000
vt 0.875000 0.500000
vt 0.875000 0.750000
vt 0.625000 0.750000
vt 0.375000 0.750000
vt 0.625000 1.000000
vt 0.375000 1.000000
vt 0.375000 0.000000
vt 0.625000 0.000000
vt 0.625000 0.250000
vt 0.375000 0.250000
vt 0.125000 0.500000
vt 0.375000 0.500000
vt 0.125000 0.750000
vt 0.409552 0.742235
vt 0.409552 0.507765
vt 0.590448 0.507765
vt 0.590448 0.742235
vt 0.526201 0.742235
vt 0.476221 0.742235
vt 0.476221 0.742235
vt 0.473799 0.742235
vt 0.473799 0.742235
vt 0.523779 0.742235
s 0
usemtl Material
f 9/1/1 5/2/1 7/3/1 11/4/1
f 12/5/2 11/4/2 7/6/2 8/7/2
f 8/8/3 7/9/3 5/10/3 6/11/3
f 6/12/4 10/13/4 12/5/4 8/14/4
f 35/15/4 17/16/4 14/16/4 22/15/4
f 6/11/5 5/10/5 9/1/5 10/13/5
f 1/17/6 2/16/6 10/13/6 9/1/6
f 34/15/6 33/18/6 11/4/6 12/5/6
f 33/18/6 1/17/6 9/1/6 11/4/6
f 2/16/6 34/15/6 12/5/6 10/13/6
f 14/16/6 13/17/6 21/18/6 22/15/6
f 15/19/1 19/19/1 32/19/1 29/19/1
f 20/17/1 36/18/1 21/18/1 13/17/1
f 17/16/5 20/17/5 13/17/5 14/16/5
f 2/16/5 1/17/5 20/17/5 17/16/5
f 1/17/1 33/18/1 36/18/1 20/17/1
f 4/20/4 23/21/4 39/21/4 38/20/4
f 34/15/4 2/16/4 17/16/4 35/15/4
f 25/19/2 26/22/2 22/15/2 21/18/2
f 26/22/2 27/23/2 35/15/2 22/15/2
f 28/19/2 25/19/2 21/18/2 36/18/2
f 27/23/2 28/19/2 36/18/2 35/15/2
f 15/19/1 16/22/1 26/22/1 25/19/1
f 16/22/1 18/23/1 27/23/1 26/22/1
f 19/19/1 15/19/1 25/19/1 28/19/1
f 18/23/1 19/19/1 28/19/1 27/23/1
f 32/19/2 31/23/2 30/22/2 29/19/2
f 16/22/6 15/19/6 29/19/6 30/22/6
f 19/19/3 18/23/3 31/23/3 32/19/3
f 18/23/4 16/22/4 30/22/4 31/23/4
f 4/20/2 3/24/2 33/18/2 34/15/2
f 23/21/2 4/20/2 34/15/2 35/15/2
f 3/24/2 24/24/2 36/18/2 33/18/2
f 24/24/2 23/21/2 35/15/2 36/18/2
f 37/24/2 38/20/2 39/21/2 40/24/2
f 24/24/1 3/24/1 37/24/1 40/24/1
f 3/24/3 4/20/3 38/20/3 37/24/3
f 23/21/6 24/24/6 40/24/6 39/21/6
