# Blender 4.0.2
# www.blender.org
mtllib ring.mtl
o Cube
v 0.000000 -1.000000 0.000000
v 0.000000 -0.468812 0.000000
v 0.000000 -1.000000 -1.000000
v 0.000000 -0.468812 -1.000000
v 0.951057 -1.000000 -0.309017
v 0.951057 -0.468812 -0.309017
v 0.587785 -1.000000 0.809017
v 0.587785 -0.468812 0.809017
v -0.587785 -1.000000 0.809017
v -0.587785 -0.468812 0.809017
v -0.951057 -1.000000 -0.309017
v -0.951057 -0.468812 -0.309017
vn -0.0000 -1.0000 -0.0000
vn -0.0000 1.0000 -0.0000
vn 0.5878 -0.0000 -0.8090
vn 0.9511 -0.0000 0.3090
vn -0.0000 -0.0000 1.0000
vn -0.9511 -0.0000 0.3090
vn -0.5878 -0.0000 -0.8090
vt 0.223607 0.262866
vt 0.500000 0.262866
vt 0.309017 0.525731
vt 0.723607 0.262866
vt 0.809017 -0.000000
vt 1.000000 0.262866
vt 0.154097 0.850651
vt 0.007280 0.850651
vt 0.007280 0.525731
vt 0.154097 0.525731
vt -0.000000 0.425325
vt 0.500000 0.100406
vt 0.465202 0.850651
vt 0.318385 0.850651
vt 0.318385 0.525731
vt 0.465202 0.525731
vt -0.000000 0.100406
vt 0.500000 0.425325
vt 0.620754 0.850651
vt 0.473937 0.850651
vt 0.473937 0.525731
vt 0.620754 0.525731
vt 0.309017 0.000000
vt 0.809017 0.525731
vt 0.778366 0.850651
vt 0.631549 0.850651
vt 0.631549 0.525731
vt 0.778366 0.525731
vt 0.308921 0.850651
vt 0.162104 0.850651
vt 0.162104 0.525731
vt 0.308921 0.525731
s 0
usemtl Material
f 1/1/1 3/2/1 5/3/1
f 2/4/2 6/5/2 4/6/2
f 3/7/3 4/8/3 6/9/3 5/10/3
f 1/1/1 5/3/1 7/11/1
f 2/4/2 8/12/2 6/5/2
f 5/13/4 6/14/4 8/15/4 7/16/4
f 1/1/1 7/11/1 9/17/1
f 2/4/2 10/18/2 8/12/2
f 7/19/5 8/20/5 10/21/5 9/22/5
f 1/1/1 9/17/1 11/23/1
f 2/4/2 12/24/2 10/18/2
f 9/25/6 10/26/6 12/27/6 11/28/6
f 1/1/1 11/23/1 3/2/1
f 2/4/2 4/6/2 12/24/2
f 11/29/7 12/30/7 4/31/7 3/32/7
