# Blender 4.0.2
# www.blender.org
mtllib door.mtl
o Cube
v 0.200000 3.000000 -0.100000
v 0.200000 0.000000 -0.100000
v 0.200000 3.000000 0.100000
v 0.200000 0.000000 0.100000
v -1.000000 3.000000 -0.100000
v -1.000000 0.000000 -0.100000
v -1.000000 3.000000 0.100000
v -1.000000 0.000000 0.100000
vn -0.0000 1.0000 -0.0000
vn -0.0000 -0.0000 1.0000
vn -1.0000 -0.0000 -0.0000
vn -0.0000 -1.0000 -0.0000
vn 1.0000 -0.0000 -0.0000
vn -0.0000 -0.0000 -1.0000
vt 0.764334 0.447133
vt 0.764334 0.658600
vt 0.729090 0.658600
vt 0.729090 0.447133
vt 0.658601 0.235666
vt 0.658601 0.764334
vt 0.447133 0.764334
vt 0.447133 0.235666
vt 0.693845 0.235666
vt 0.693845 0.764334
vt 0.658601 0.764334
vt 0.729090 0.235666
vt 0.764334 0.235666
vt 0.729090 0.235666
vt 0.729090 0.764334
vt 0.693845 0.764334
vt 0.447133 0.235666
vt 0.235666 0.764334
vt 0.235666 0.235666
s 0
usemtl Material
f 1/1/1 5/2/1 7/3/1 3/4/1
f 4/5/2 3/6/2 7/7/2 8/8/2
f 8/9/3 7/10/3 5/11/3 6/5/3
f 6/4/4 2/12/4 4/13/4 8/1/4
f 2/14/5 1/15/5 3/16/5 4/9/5
f 6/17/6 5/7/6 1/18/6 2/19/6
